HIERARCHY
ROOT Hips
{
  OFFSET -4.35178 90.3298 111.633
  CHANNELS 6 Xposition Yposition Zposition Zrotation Xrotation Yrotation
  JOINT LeftUpLeg
  {
    OFFSET 0.103456 1.85784 10.5485
    CHANNELS 6 Xposition Yposition Zposition Zrotation Xrotation Yrotation
    JOINT LeftLeg
    {
      OFFSET 43.5 -4.2e-05 0
      CHANNELS 6 Xposition Yposition Zposition Zrotation Xrotation Yrotation
      JOINT LeftFoot
      {
        OFFSET 42.3722 1.9e-05 0
        CHANNELS 6 Xposition Yposition Zposition Zrotation Xrotation Yrotation
        JOINT LeftToe
        {
          OFFSET 17.3 0 0
          CHANNELS 6 Xposition Yposition Zposition Zrotation Xrotation Yrotation
          End Site
          {
            OFFSET 0 0 0
          }
        }
      }
    }
  }
  JOINT RightUpLeg
  {
    OFFSET 0.103456 1.85782 -10.5485
    CHANNELS 6 Xposition Yposition Zposition Zrotation Xrotation Yrotation
    JOINT RightLeg
    {
      OFFSET 43.5 -2.7e-05 0
      CHANNELS 6 Xposition Yposition Zposition Zrotation Xrotation Yrotation
      JOINT RightFoot
      {
        OFFSET 42.3723 0 0
        CHANNELS 6 Xposition Yposition Zposition Zrotation Xrotation Yrotation
        JOINT RightToe
        {
          OFFSET 17.3 0 1.7e-05
          CHANNELS 6 Xposition Yposition Zposition Zrotation Xrotation Yrotation
          End Site
          {
            OFFSET 0 0 0
          }
        }
      }
    }
  }
  JOINT Spine
  {
    OFFSET 6.90197 -2.60373 0
    CHANNELS 6 Xposition Yposition Zposition Zrotation Xrotation Yrotation
    JOINT Spine1
    {
      OFFSET 12.5881 0 0
      CHANNELS 6 Xposition Yposition Zposition Zrotation Xrotation Yrotation
      JOINT Spine2
      {
        OFFSET 12.3432 -1.8e-05 0
        CHANNELS 6 Xposition Yposition Zposition Zrotation Xrotation Yrotation
        JOINT Neck
        {
          OFFSET 25.8329 2.3e-05 0
          CHANNELS 6 Xposition Yposition Zposition Zrotation Xrotation Yrotation
          JOINT Head
          {
            OFFSET 11.7666 0 0
            CHANNELS 6 Xposition Yposition Zposition Zrotation Xrotation Yrotation
            End Site
            {
              OFFSET 0 0 0
            }
          }
        }
        JOINT LeftShoulder
        {
          OFFSET 19.7459 -1.48035 6.0001
          CHANNELS 6 Xposition Yposition Zposition Zrotation Xrotation Yrotation
          JOINT LeftArm
          {
            OFFSET 11.2841 1.8e-05 -2e-05
            CHANNELS 6 Xposition Yposition Zposition Zrotation Xrotation Yrotation
            JOINT LeftForeArm
            {
              OFFSET 33 -1.3e-05 1.9e-05
              CHANNELS 6 Xposition Yposition Zposition Zrotation Xrotation Yrotation
              JOINT LeftHand
              {
                OFFSET 25.2 3.2e-05 1.1e-05
                CHANNELS 6 Xposition Yposition Zposition Zrotation Xrotation Yrotation
                End Site
                {
                  OFFSET 0 0 0
                }
              }
            }
          }
        }
        JOINT RightShoulder
        {
          OFFSET 19.7461 -1.48036 -6.00008
          CHANNELS 6 Xposition Yposition Zposition Zrotation Xrotation Yrotation
          JOINT RightArm
          {
            OFFSET 11.2841 0 0
            CHANNELS 6 Xposition Yposition Zposition Zrotation Xrotation Yrotation
            JOINT RightForeArm
            {
              OFFSET 33.0001 1.6e-05 0
              CHANNELS 6 Xposition Yposition Zposition Zrotation Xrotation Yrotation
              JOINT RightHand
              {
                OFFSET 25.1998 0.000123 0.000432
                CHANNELS 6 Xposition Yposition Zposition Zrotation Xrotation Yrotation
                End Site
                {
                  OFFSET 0 0 0
                }
              }
            }
          }
        }
      }
    }
  }
}
MOTION
Frames:	9
Frame Time:	0.0333333
-102.338 86.1415 71.6065 -46.115 -80.9855 -130.586 0.103456 1.85784 10.5485 28.5654 19.086 173.458 43.5 -4.2e-05 1e-05 -21.643 -13.2415 -4.04846 42.3722 1.9e-05 0 78.2414 7.01693 -3.6925 17.3 0 3e-06 21.4546 -1e-06 0.003093 0.103456 1.85782 -10.5485 -24.6853 -1.12843 -178.704 43.5 -2.7e-05 4e-06 -19.9124 5.68323 -2.56741 42.3723 0 1e-05 70.0721 3.96182 -7.46357 17.3 -6e-06 1.7e-05 21.4546 -1.9e-05 -0.003116 6.90197 -2.60373 -3e-06 8.59098 -0.36744 -0.92245 12.5881 1e-05 8e-06 7.17407 -0.793888 -1.75197 12.3432 -1.8e-05 -5e-06 6.87239 -0.794749 -1.68526 25.8329 2.3e-05 7e-06 5.99973 4.94738 -8.15486 11.7666 -8e-06 -6e-06 -14.233 0.500287 14.9164 19.7459 -1.48035 6.0001 179.495 -4.02458 -82.8184 11.2841 1.8e-05 -2e-05 -9.99411 -10.2082 62.0223 33 -1.3e-05 1.9e-05 -34.7246 9.60248 -7.55494 25.2 3.2e-05 1.1e-05 -16.5817 29.4004 4.434 19.7461 -1.48036 -6.00008 -165.871 -2.26324 56.988 11.2841 2.84217e-14 -1e-06 -11.4184 -18.3331 -39.2051 33.0001 1.6e-05 -1e-06 -22.7985 6.06586 14.1554 25.1998 0.000123 0.000432 11.8065 -13.0818 4.93913 
-102.088 86.0077 66.7515 -40.0564 -81.7687 -124.806 0.103456 1.85784 10.5485 26.6568 16.7864 175.409 43.5 -4.2e-05 1e-05 -28.6352 -13.5738 -4.73461 42.3722 1.9e-05 0 73.1342 9.27867 -1.52146 17.3 0 3e-06 21.4546 -1e-06 0.003093 0.103456 1.85782 -10.5485 -25.0418 -0.308554 -178.538 43.5 -2.7e-05 4e-06 -25.6275 6.24571 -3.1657 42.3723 0 1e-05 68.0771 5.90696 -9.61435 17.3 -6e-06 1.7e-05 21.4546 -1.9e-05 -0.003116 6.90197 -2.60373 -3e-06 8.33257 -0.493115 -0.648004 12.5881 1e-05 8e-06 6.66003 -1.00273 -1.18736 12.3432 -1.8e-05 -5e-06 6.36048 -0.976017 -1.1093 25.8329 2.3e-05 7e-06 6.18567 4.19321 -7.75651 11.7666 -8e-06 -6e-06 -13.042 0.741668 14.0077 19.7459 -1.48035 6.0001 179.85 -4.53234 -82.3042 11.2841 1.8e-05 -2e-05 -9.90092 -9.84085 62.5449 33 -1.3e-05 1.9e-05 -33.9311 9.49341 -7.83569 25.2 3.2e-05 1.1e-05 -16.3168 29.3173 4.33992 19.7461 -1.48036 -6.00008 -165.204 -2.58064 56.9417 11.2841 0 -1e-06 -12.1496 -19.11 -39.8865 33.0001 1.6e-05 -1e-06 -22.0891 5.40956 13.7442 25.1998 0.000123 0.000432 11.2525 -13.4015 4.67197 
-101.72 86.3063 61.9507 -35.9309 -81.7668 -121.079 0.103456 1.85784 10.5485 23.1201 15.2444 178.33 43.5 -4.2e-05 1e-05 -38.3222 -13.0494 -6.55223 42.3722 1.9e-05 0 63.741 12.5113 0.862982 17.3 -1.42109e-14 3e-06 21.4546 -1e-06 0.003093 0.103456 1.85782 -10.5485 -25.315 -1.5197 -178.014 43.5 -2.7e-05 4e-06 -32.9214 7.14347 -3.93503 42.3723 -7.10543e-15 1e-05 71.9989 5.58592 -9.26175 17.3 -6e-06 1.7e-05 21.4546 -1.9e-05 -0.003116 6.90197 -2.60373 -3e-06 8.21058 -0.435842 -0.379563 12.5881 1e-05 8e-06 6.41622 -0.847949 -0.66256 12.3432 -1.8e-05 -5e-06 6.11274 -0.792784 -0.595431 25.8329 2.3e-05 7e-06 6.40696 3.44709 -7.43594 11.7666 -8e-06 -6e-06 -12.3269 0.719176 13.2394 19.7459 -1.48035 6.0001 -179.701 -4.73625 -81.8633 11.2841 1.8e-05 -2e-05 -9.65707 -9.58163 63.4608 33 -1.3e-05 1.9e-05 -32.9978 9.50337 -8.16679 25.2 3.2e-05 1.1e-05 -16.1428 28.9882 4.47367 19.7461 -1.48036 -6.00008 -165.067 -2.88095 57.4426 11.2841 -1.42109e-14 -1e-06 -13.5493 -19.4582 -40.8354 33.0001 1.6e-05 -1e-06 -22.3143 4.47699 13.3694 25.1998 0.000123 0.000432 10.0995 -13.7283 4.5991 
-101.336 86.8541 57.2992 -31.7906 -81.6926 -117.56 0.103456 1.85784 10.5485 17.013 14.0723 -177.843 43.5 -4.2e-05 1e-05 -50.5121 -12.1942 -7.89567 42.3722 1.9e-05 2.84217e-14 53.6488 18.5449 2.46073 17.3 0 3e-06 21.4546 -1e-06 0.003093 0.103456 1.85782 -10.5485 -23.4034 -2.82102 -177.956 43.5 -2.7e-05 4e-06 -36.2488 7.75491 -3.63029 42.3723 -7.10543e-15 1e-05 75.1679 5.45263 -8.88948 17.3 -6e-06 1.7e-05 21.4546 -1.9e-05 -0.003116 6.90197 -2.60373 -3e-06 8.23679 -0.345468 -0.0956528 12.5881 1e-05 8e-06 6.46722 -0.622642 -0.110487 12.3432 -1.8e-05 -5e-06 6.1583 -0.533014 -0.0583729 25.8329 2.3e-05 7e-06 6.5092 2.70928 -7.15161 11.7666 -8e-06 -6e-06 -12.3132 0.24291 12.7511 19.7459 -1.48035 6.0001 -179.294 -4.38306 -81.928 11.2841 1.8e-05 -2e-05 -9.23027 -9.75251 64.877 33 -1.3e-05 1.9e-05 -32.1088 9.41876 -8.34337 25.2 3.2e-05 1.1e-05 -15.7472 28.667 4.64063 19.7461 -1.48036 -6.00008 -165.358 -3.51608 58.8265 11.2841 0 -1e-06 -15.2745 -18.6169 -42.0131 33.0001 1.6e-05 -1e-06 -23.6171 3.93764 13.0528 25.1998 0.000123 0.000432 9.57436 -14.1338 4.9641 
-100.987 87.4135 52.8635 -24.8531 -81.8004 -111.396 0.103456 1.85784 10.5485 9.77795 13.5947 -174.19 43.5 -4.2e-05 1e-05 -61.5443 -12.6977 -7.476 42.3722 1.9e-05 0 44.801 28.4879 5.03807 17.3 -1.42109e-14 3e-06 21.4546 -1e-06 0.003093 0.103456 1.85782 -10.5485 -19.8519 -4.1228 -177.992 43.5 -2.7e-05 4e-06 -36.4959 8.34649 -2.94305 42.3723 0 1e-05 78.7399 5.60175 -8.38675 17.3 -6e-06 1.7e-05 21.4546 -1.9e-05 -0.003116 6.90197 -2.60373 -3e-06 8.30384 -0.266808 0.208386 12.5881 1e-05 8e-06 6.59868 -0.416153 0.483645 12.3432 -1.8e-05 -5e-06 6.28417 -0.288225 0.521948 25.8329 2.3e-05 7e-06 6.57559 1.87532 -6.75998 11.7666 -8e-06 -6e-06 -12.709 -0.703635 12.3423 19.7459 -1.48035 6.0001 -179.108 -3.84625 -82.394 11.2841 1.8e-05 -2e-05 -9.93091 -9.70491 66.08 33 -1.3e-05 1.9e-05 -31.6812 9.22289 -8.06485 25.2 3.2e-05 1.1e-05 -15.2937 28.4516 4.85906 19.7461 -1.48036 -6.00008 -166.022 -4.09639 60.7716 11.2841 0 -1e-06 -17.4479 -17.9756 -42.7834 33.0001 1.6e-05 -1e-06 -26.2496 4.22978 12.5061 25.1998 0.000123 0.000432 9.51307 -14.6268 5.89091 
-100.75 88.1137 48.6532 -15.1365 -82.1384 -102.364 0.103456 1.85784 10.5485 2.50664 12.5869 -171.448 43.5 -4.2e-05 1e-05 -70.0424 -11.7149 -6.63019 42.3722 1.9e-05 0 43.7651 31.2697 6.424 17.3 0 3e-06 21.4546 -1e-06 0.003093 0.103456 1.85782 -10.5485 -16.1013 -4.47472 -177.675 43.5 -2.7e-05 4e-06 -35.5534 8.88857 -2.7205 42.3723 7.10543e-15 1e-05 81.2085 6.8335 -8.25805 17.3 -6e-06 1.7e-05 21.4546 -1.9e-05 -0.003116 6.90197 -2.60373 -3e-06 8.25365 -0.205159 0.474945 12.5881 1e-05 8e-06 6.49536 -0.252623 1.00501 12.3432 -1.8e-05 -5e-06 6.17597 -0.0943914 1.03208 25.8329 2.3e-05 7e-06 6.80679 1.09183 -6.34648 11.7666 -8e-06 -6e-06 -12.7937 -1.78544 12.0207 19.7459 -1.48035 6.0001 -179.076 -3.43595 -82.6383 11.2841 1.8e-05 -2e-05 -11.8069 -9.09011 66.5665 33 -1.3e-05 1.9e-05 -31.836 9.21093 -7.53905 25.2 3.2e-05 1.1e-05 -15.1702 28.3379 5.14871 19.7461 -1.48036 -6.00008 -167.298 -4.14447 62.6367 11.2841 -1.42109e-14 -1e-06 -19.9381 -17.9783 -42.7977 33.0001 1.6e-05 -1e-06 -28.9422 4.5456 11.8982 25.1998 0.000123 0.000432 9.04482 -15.2092 7.04673 
-100.766 88.9933 44.55 -3.33813 -82.3788 -90.8076 0.103456 1.85784 10.5485 -4.33467 12.038 -170.138 43.5 -4.2e-05 1e-05 -74.7272 -8.53298 -5.66677 42.3722 1.9e-05 0 49.2856 24.3307 8.1305 17.3 1.42109e-14 3e-06 21.4546 -1e-06 0.003093 0.103456 1.85782 -10.5485 -11.9715 -4.2648 -177.95 43.5 -2.7e-05 4e-06 -33.3544 9.29687 -1.95307 42.3723 0 1e-05 82.7243 8.15798 -8.51377 17.3 -6e-06 1.7e-05 21.4546 -1.9e-05 -0.003116 6.90197 -2.60373 -3e-06 8.10151 -0.22114 0.592811 12.5881 1e-05 8e-06 6.191 -0.271036 1.24175 12.3432 -1.8e-05 -5e-06 5.87075 -0.102765 1.26914 25.8329 2.3e-05 7e-06 7.16524 0.64467 -6.07282 11.7666 -8e-06 -6e-06 -12.3154 -2.67876 12.0079 19.7459 -1.48035 6.0001 -178.938 -3.30159 -82.6825 11.2841 1.8e-05 -2e-05 -13.472 -8.3115 66.7906 33 -1.3e-05 1.9e-05 -32.3231 9.36178 -7.10426 25.2 3.2e-05 1.1e-05 -15.5794 28.0528 5.56677 19.7461 -1.48036 -6.00008 -169.182 -3.82278 64.2211 11.2841 1.42109e-14 -1e-06 -22.8098 -18.6049 -42.1661 33.0001 1.6e-05 -1e-06 -31.4301 4.1543 11.4062 25.1998 0.000123 0.000432 7.83332 -16.2253 8.52457 
-100.874 89.882 40.489 6.40131 -82.2881 -81.1537 0.103456 1.85784 10.5485 -10.486 12.1803 -169.633 43.5 -4.2e-05 1e-05 -75.8708 -6.02995 -4.82674 42.3722 1.9e-05 0 52.8192 17.6162 10.4992 17.3 0 3e-06 21.4546 -1e-06 0.003093 0.103456 1.85782 -10.5485 -7.26538 -4.40885 -178.453 43.5 -2.7e-05 4e-06 -29.9729 9.59659 -0.887259 42.3723 1.42109e-14 1e-05 83.51 8.63091 -8.6499 17.3 -6e-06 1.7e-05 21.4546 -1.9e-05 -0.003116 6.90197 -2.60373 -3e-06 7.9663 -0.238992 0.634658 12.5881 1e-05 8e-06 5.92099 -0.304807 1.32724 12.3432 -1.8e-05 -5e-06 5.60084 -0.135293 1.3562 25.8329 2.3e-05 7e-06 7.45694 0.396606 -5.94814 11.7666 -8e-06 -6e-06 -11.273 -3.40318 12.1895 19.7459 -1.48035 6.0001 -178.648 -3.2711 -82.7981 11.2841 1.8e-05 -2e-05 -14.219 -7.85666 67.1909 33 -1.3e-05 1.9e-05 -32.7898 9.25589 -6.73517 25.2 3.2e-05 1.1e-05 -16.126 27.7123 5.87668 19.7461 -1.48036 -6.00008 -171.243 -3.58291 65.7694 11.2841 0 -1e-06 -25.5579 -18.625 -41.2291 33.0001 1.6e-05 -1e-06 -33.5111 2.58943 11.3834 25.1998 0.000123 0.000432 6.67442 -17.9712 10.4073 
-100.995 90.6238 36.472 11.3088 -82.21 -76.3667 0.103456 1.85784 10.5485 -15.5681 12.5864 -169.605 43.5 -4.2e-05 1e-05 -73.801 -4.39807 -4.57303 42.3722 1.9e-05 0 55.2018 11.1961 12.7391 17.3 3.55271e-15 3e-06 21.4546 -1e-06 0.003093 0.103456 1.85782 -10.5485 -2.48816 -5.00423 -178.813 43.5 -2.7e-05 4e-06 -26.0532 9.7734 0.109797 42.3723 -7.10543e-15 1e-05 83.6766 8.44687 -8.37932 17.3 -6e-06 1.7e-05 21.4546 -1.9e-05 -0.003116 6.90197 -2.60373 -3e-06 7.87071 -0.151027 0.636057 12.5881 1e-05 8e-06 5.72683 -0.132521 1.31623 12.3432 -1.8e-05 -5e-06 5.40415 0.0330425 1.3343 25.8329 2.3e-05 7e-06 7.60539 0.282359 -5.91567 11.7666 -8e-06 -6e-06 -10.0123 -4.02604 12.5187 19.7459 -1.48035 6.0001 -178.264 -3.20282 -83.0599 11.2841 1.8e-05 -2e-05 -14.0879 -7.90466 67.7067 33 -1.3e-05 1.9e-05 -33.0333 9.00761 -6.4511 25.2 3.2e-05 1.1e-05 -16.3771 27.5659 5.96597 19.7461 -1.48036 -6.00008 -173.122 -3.51172 67.3639 11.2841 0 -1e-06 -27.4872 -17.4885 -40.0509 33.0001 1.6e-05 -1e-06 -35.7201 0.770682 11.7612 25.1998 0.000123 0.000432 6.07389 -19.734 12.2056 
